<?xml version="1.0" encoding="utf-8"?>
<!-- Generator: Adobe Illustrator 27.4.1, SVG Export Plug-In . SVG Version: 6.00 Build 0)  -->
<svg version="1.1" id="Layer_1" xmlns="http://www.w3.org/2000/svg" xmlns:xlink="http://www.w3.org/1999/xlink" x="0px" y="0px"
	 viewBox="0 0 378 130" style="enable-background:new 0 0 378 130;" xml:space="preserve">
<style type="text/css">
	.st0{fill:#684A29;}
	.st1{fill:#FFFF03;}
</style>
<g>
	<path class="st0" d="M271.5,130c-5.7,0-9.9-1.8-12.6-5.4c-3.2-4.3-3.7-11.1-1.3-18.5l6.5-21.2c-2.2,0.7-4.5,1.1-7,1.3
		c-6.3,6.7-14.6,10.3-23.5,10.3c-9.5,0-17.5-4.2-21.7-11.2c-6.3,7.5-13.6,11.2-21.8,11.2c-7.5,0-12.8-3-15.2-8.6
		c-5.8,5.7-12.3,8.6-19.4,8.6c-5.3,0-9.4-1.5-12.3-4.5c-2.1-2.1-3.5-5-4-8.4c-3.1,1.4-6.6,2.3-10.5,2.6
		c-6.3,6.7-14.6,10.3-23.5,10.3c-2.6,0-5.1-0.3-7.4-0.9l5.1,7.1c0.8,1.1,0.6,2.6-0.4,3.5c-6.1,5.5-13.1,8.4-21,8.4
		c-16,0-28.2-12.9-37.9-23.2L43.3,91c-4.6,2.5-9.7,3.8-15.3,3.8c-14,0-20.4-8.1-20.4-15.6c0-7.1,5.4-14.7,17.2-14.7
		c5.1,0,10,1.4,15.4,4.5c0.9-2,1.8-4.3,2.7-6.9l0.5-1.8c-12.9-3-20.7-12-20.7-24.1c0-8.7,4-16.7,11.1-21.9c0.5-0.3,1-0.5,1.6-0.5
		c0.8,0,1.5,0.3,2,1l8.3,10c0.9,1,0.8,2.6-0.2,3.5c-3.8,3.8-4.3,7.7-4.3,9.7c0,4.1,2.3,7.2,6.5,8.8l0.9-2.9
		C55.8,19.9,66.8,7.6,81.1,7.6c10.4,0,17.4,6.8,17.4,16.9c0,14.2-13.2,31.7-34.7,36l-1,3.2c-2,6.6-4.6,12.1-7.8,16.6
		c0.6,0.5,1.2,1.1,1.8,1.6c7.6,6.8,14.8,13.3,22.3,13.3c3.3,0,6.2-1.1,9.8-3.8c-5.6-4.2-9-10.9-9-18.9c0-16,13.2-33.2,32.7-33.2
		c14.9,0,25.3,9.9,25.3,24c0,2.5-0.3,5.1-1,7.6c1.9-1.5,3.5-3.5,4.9-6.1l2.6-8.6H142c-0.8,0-1.6-0.4-2.1-1.1
		c-0.5-0.7-0.6-1.5-0.4-2.3l3.2-10.8c0.3-1.1,1.4-1.9,2.5-1.9h4.1l3.3-10.7c0.3-0.9,0.9-1.5,1.8-1.8l15.7-4.3
		c0.2-0.1,0.5-0.1,0.7-0.1c0.7,0,1.4,0.3,1.9,0.8c0.7,0.7,0.9,1.7,0.6,2.6l-4.2,13.5h14.7l3.4-10.8c0.3-0.8,0.9-1.5,1.8-1.7
		l15.6-4.3c0.2-0.1,0.5-0.1,0.7-0.1c0.7,0,1.4,0.3,1.9,0.8c0.7,0.7,0.9,1.7,0.6,2.6l-4.2,13.5h9.5c0.8,0,1.6,0.4,2.1,1.1
		c0.5,0.7,0.6,1.5,0.4,2.3l-3.3,10.8c-0.3,1.1-1.4,1.8-2.5,1.8h-11.1l-5.6,18.4c-1.3,4.1-0.5,5.6-0.3,5.9c0.3,0.4,1,0.6,1.9,0.6
		c3.9,0,9.2-4.7,13.8-12.2c1.7-14.7,14.2-29.7,32.5-29.7c14.9,0,25.3,9.9,25.3,24c0,2.5-0.3,5.1-1,7.6c1.8-1.4,3.3-3.3,4.6-5.7
		l9.8-32.1c3.4-10.8,10.6-17.2,19.3-17.2c5.1,0,9.5,2.1,12.5,6c3.4,4.5,4.4,10.6,2.6,17.2c-7.2,27.1-13.5,33.6-27.9,37.5l-1.1,3.7
		c2.2,0.9,4.3,1.3,6.4,1.3c6.9,0,12.9-5.3,18.6-16.7l6.9-22.9c0.3-1.1,1.4-1.9,2.5-1.9h14.4c0.8,0,1.6,0.4,2.1,1.1s0.6,1.5,0.4,2.3
		l-9.1,29.8c-1,3.1-0.8,4.8-0.4,5.4c0.3,0.5,1.2,0.6,1.9,0.6c2.3,0,4.8-1.6,7.5-5l9.9-32.3c0.3-1.1,1.4-1.9,2.5-1.9h14.4
		c0.8,0,1.6,0.4,2.1,1.1c0.5,0.7,0.6,1.5,0.4,2.3l-12.1,39.6c6.5-5.6,10.4-12.4,13.7-19.1c0.4-0.9,1.4-1.5,2.3-1.5c0,0,0.1,0,0.1,0
		c2.7,0.1,6.1,2.1,7.5,3.7c0.6,0.8,0.8,1.9,0.4,2.8c-7,15.2-16.1,24.9-29.4,31.5l-0.3,0.9c-7.1,23.3-20.8,26.8-28.4,26.8
		c-9.8,0-16.4-5.7-16.4-14.2c0-10.9,10.1-15.1,19.1-17.5c-7.1,0-12.2-3-14.5-8.4c-3.5,3-7.4,4.9-11.6,5.8c1.1,4.5,0.7,9.8-1.1,15.7
		C291.2,122.9,283,130,271.5,130z M275.5,112.2c-0.6,1.8-0.3,2.6-0.2,2.8c0,0,0.2,0.1,0.7,0.1c3.4,0,5.8-5.8,7-9.2
		c2-6.3,1.8-10.9-0.7-12.9c-0.2-0.1-0.5-0.1-0.7-0.2L275.5,112.2z M325.8,108.1c-4.8,1.2-9.6,2.9-9.6,5.2c0,1.1,0.8,1.7,2.2,1.7
		C321,115,323.7,112.5,325.8,108.1z M158.5,74.6c-1.2,4.1-0.4,5.6-0.2,5.9c0.3,0.4,1,0.6,1.9,0.6c4.7,0,11.4-6.9,16.1-16.4l2.6-8.6
		h-14.8L158.5,74.6z M24.6,77.2c-1.6,0-3.2,0.5-3.2,1.7c0,1.1,2,2,4.5,2c1.1,0,3-0.2,5.1-1.3C28.6,78,26.5,77.2,24.6,77.2z
		 M240.2,56.2c-5.5,0-12.2,7-12.2,15.8c0,6.6,3.9,7.6,6.2,7.6c1,0,2.1-0.2,3-0.6c-0.4-1.2-0.6-2.4-0.6-3.7c0-5.7,4.4-10.4,10-10.7
		c0-0.3,0-0.5,0-0.7C246.6,56.9,242.1,56.2,240.2,56.2z M111.6,56.2c-5.5,0-12.2,7-12.2,15.8c0,6.6,3.9,7.6,6.2,7.6
		c1,0,2.1-0.2,3-0.6c-0.4-1.2-0.6-2.4-0.6-3.7c0-5.7,4.4-10.4,10-10.7c0-0.3,0-0.5,0-0.7C118.1,56.9,113.6,56.2,111.6,56.2z
		 M301.3,32.4c-1.1,0-1.9,1.9-2.2,3.1l-7.6,25c3.5-3.1,6.2-9.3,10.5-24.3c0.5-1.9,0.3-3.1,0-3.6C301.8,32.5,301.7,32.4,301.3,32.4z
		 M82,22.7c-3.4,0-8.7,6.4-13,20.7l-0.4,1.3c9.2-4.6,15.3-13.1,15.3-19.1C83.9,22.7,82.5,22.7,82,22.7z"/>
	<path class="st0" d="M266.5,125c-5.7,0-9.9-1.8-12.6-5.4c-3.2-4.3-3.7-11.1-1.3-18.5l6.5-21.2c-2.2,0.7-4.5,1.1-7,1.3
		c-6.3,6.7-14.6,10.3-23.5,10.3c-9.5,0-17.5-4.2-21.7-11.2c-6.3,7.5-13.6,11.2-21.8,11.2c-7.5,0-12.8-3-15.2-8.6
		c-5.8,5.7-12.3,8.6-19.4,8.6c-5.3,0-9.4-1.5-12.3-4.5c-2.1-2.1-3.5-5-4-8.4c-3.1,1.4-6.6,2.3-10.5,2.6
		c-6.3,6.7-14.6,10.3-23.5,10.3c-2.6,0-5.1-0.3-7.4-0.9l5.1,7.1c0.8,1.1,0.6,2.6-0.4,3.5c-6.1,5.5-13.1,8.4-21,8.4
		c-16,0-28.2-12.9-37.9-23.2L38.3,86c-4.6,2.5-9.7,3.8-15.3,3.8c-14,0-20.4-8.1-20.4-15.6c0-7.1,5.4-14.7,17.2-14.7
		c5.1,0,10,1.4,15.4,4.5c0.9-2,1.8-4.3,2.7-6.9l0.5-1.8c-12.9-3-20.7-12-20.7-24.1c0-8.7,4-16.7,11.1-21.9c0.5-0.3,1-0.5,1.6-0.5
		c0.8,0,1.5,0.3,2,1l8.3,10c0.9,1,0.8,2.6-0.2,3.5c-3.8,3.8-4.3,7.7-4.3,9.7c0,4.1,2.3,7.2,6.5,8.8l0.9-2.9
		C50.8,14.9,61.8,2.6,76.1,2.6c10.4,0,17.4,6.8,17.4,16.9c0,14.2-13.2,31.7-34.7,36l-1,3.2c-2,6.6-4.6,12.1-7.8,16.6
		c0.6,0.5,1.2,1.1,1.8,1.6c7.6,6.8,14.8,13.3,22.3,13.3c3.3,0,6.2-1.1,9.8-3.8c-5.6-4.2-9-10.9-9-18.9c0-16,13.2-33.2,32.7-33.2
		c14.9,0,25.3,9.9,25.3,24c0,2.5-0.3,5.1-1,7.6c1.9-1.5,3.5-3.5,4.9-6.1l2.6-8.6h-2.4c-0.8,0-1.6-0.4-2.1-1.1
		c-0.5-0.7-0.6-1.5-0.4-2.3l3.2-10.8c0.3-1.1,1.4-1.9,2.5-1.9h4.1l3.3-10.7c0.3-0.9,0.9-1.5,1.8-1.8l15.7-4.3
		c0.2-0.1,0.5-0.1,0.7-0.1c0.7,0,1.4,0.3,1.9,0.8c0.7,0.7,0.9,1.7,0.6,2.6l-4.2,13.5h14.7l3.4-10.8c0.3-0.8,0.9-1.5,1.8-1.7
		l15.6-4.3c0.2-0.1,0.5-0.1,0.7-0.1c0.7,0,1.4,0.3,1.9,0.8c0.7,0.7,0.9,1.7,0.6,2.6l-4.2,13.5h9.5c0.8,0,1.6,0.4,2.1,1.1
		c0.5,0.7,0.6,1.5,0.4,2.3l-3.3,10.8c-0.3,1.1-1.4,1.8-2.5,1.8h-11.1l-5.6,18.4c-1.3,4.1-0.5,5.6-0.3,5.9c0.3,0.4,1,0.6,1.9,0.6
		c3.9,0,9.2-4.7,13.8-12.2c1.7-14.7,14.2-29.7,32.5-29.7c14.9,0,25.3,9.9,25.3,24c0,2.5-0.3,5.1-1,7.6c1.8-1.4,3.3-3.3,4.6-5.7
		l9.8-32.1c3.4-10.8,10.6-17.2,19.3-17.2c5.1,0,9.5,2.1,12.5,6c3.4,4.5,4.4,10.6,2.6,17.2c-7.2,27.1-13.5,33.6-27.9,37.5l-1.1,3.7
		c2.2,0.9,4.3,1.3,6.4,1.3c6.9,0,12.9-5.3,18.6-16.7l6.9-22.9c0.3-1.1,1.4-1.9,2.5-1.9H329c0.8,0,1.6,0.4,2.1,1.1s0.6,1.5,0.4,2.3
		l-9.1,29.8c-1,3.1-0.8,4.8-0.4,5.4c0.3,0.5,1.2,0.6,1.9,0.6c2.3,0,4.8-1.6,7.5-5l9.9-32.3c0.3-1.1,1.4-1.9,2.5-1.9h14.4
		c0.8,0,1.6,0.4,2.1,1.1c0.5,0.7,0.6,1.5,0.4,2.3l-12.1,39.6c6.5-5.6,10.4-12.4,13.7-19.1c0.4-0.9,1.4-1.5,2.3-1.5c0,0,0.1,0,0.1,0
		c2.7,0.1,6.1,2.1,7.5,3.7c0.6,0.8,0.8,1.9,0.4,2.8c-7,15.2-16.1,24.9-29.4,31.5l-0.3,0.9c-7.1,23.3-20.8,26.8-28.4,26.8
		c-9.8,0-16.4-5.7-16.4-14.2c0-10.9,10.1-15.1,19.1-17.5c-7.1,0-12.2-3-14.5-8.4c-3.5,3-7.4,4.9-11.6,5.8c1.1,4.5,0.7,9.8-1.1,15.7
		C286.2,117.9,277.9,125,266.5,125z M270.5,107.2c-0.6,1.8-0.3,2.6-0.2,2.8c0,0,0.2,0.1,0.7,0.1c3.4,0,5.8-5.8,7-9.2
		c2-6.3,1.8-10.9-0.7-12.9c-0.2-0.1-0.5-0.1-0.7-0.2L270.5,107.2z M320.8,103.1c-4.8,1.2-9.6,2.9-9.6,5.2c0,1.1,0.8,1.7,2.2,1.7
		C316,110,318.7,107.5,320.8,103.1z M153.5,69.6c-1.2,4.1-0.4,5.6-0.2,5.9c0.3,0.4,1,0.6,1.9,0.6c4.7,0,11.4-6.9,16.1-16.4l2.6-8.6
		h-14.8L153.5,69.6z M19.6,72.2c-1.6,0-3.2,0.5-3.2,1.7c0,1.1,2,2,4.5,2c1.1,0,3-0.2,5.1-1.3C23.6,73,21.5,72.2,19.6,72.2z
		 M235.2,51.2c-5.5,0-12.2,7-12.2,15.8c0,6.6,3.9,7.6,6.2,7.6c1,0,2.1-0.2,3-0.6c-0.4-1.2-0.6-2.4-0.6-3.7c0-5.7,4.4-10.4,10-10.7
		c0-0.3,0-0.5,0-0.7C241.6,51.9,237.1,51.2,235.2,51.2z M106.6,51.2c-5.5,0-12.2,7-12.2,15.8c0,6.6,3.9,7.6,6.2,7.6
		c1,0,2.1-0.2,3-0.6c-0.4-1.2-0.6-2.4-0.6-3.7c0-5.7,4.4-10.4,10-10.7c0-0.3,0-0.5,0-0.7C113.1,51.9,108.6,51.2,106.6,51.2z
		 M296.3,27.4c-1.1,0-1.9,1.9-2.2,3.1l-7.6,25c3.5-3.1,6.2-9.3,10.5-24.3c0.5-1.9,0.3-3.1,0-3.6C296.8,27.5,296.7,27.4,296.3,27.4z
		 M77,17.7c-3.4,0-8.7,6.4-13,20.7l-0.4,1.3c9.2-4.6,15.3-13.1,15.3-19.1C78.9,17.7,77.5,17.7,77,17.7z"/>
	<path class="st1" d="M76.1,5.2c8.8,0,14.8,5.3,14.8,14.3c0,13.1-13,30.2-34.1,33.8L55.2,58C53,65.4,50,71.2,46.4,75.7
		c9.3,8.2,17.9,17.1,27.7,17.1c4,0,7.9-1.4,13-5.6l8.6,11.9c-5.8,5.3-12.3,7.7-19.2,7.7c-15.7,0-27.5-13.4-37.6-24.1
		c-4.7,3.1-10,4.5-15.7,4.5c-12,0-17.8-6.3-17.8-13c0-6.2,4.9-12.1,14.6-12.1c6,0,11.4,2.4,16.4,5.6c1.5-2.6,2.9-5.8,4.1-9.7
		l1.4-4.6c-13.7-2.1-21.5-10.6-21.5-22c0-8.1,3.9-15.3,10-19.8l8.3,10c-3.6,3.6-5.1,7.9-5.1,11.5c0,5.2,3.1,10.3,10.8,12l1.7-5.3
		C50.9,23.5,59.9,5.2,76.1,5.2 M59.5,44.1c13.1-4,22-15.5,22-23.5c0-4.2-2.5-5.5-4.5-5.5c-5.5,0-11.3,8.6-15.5,22.5L59.5,44.1
		 M20.9,78.6c2,0,5.7-0.5,9.6-3.7c-3.7-3.1-7.3-5.2-10.9-5.2c-3.7,0-5.8,2-5.8,4.3C13.8,76.7,16.8,78.6,20.9,78.6 M294.2,13.5
		c9.3,0,15.6,8.4,12.6,19.9c-7.4,27.7-13.3,32.5-27.5,36l-2.3,7.3c3.4,1.7,6.6,2.5,9.5,2.5c9.7,0,16.2-8.8,21-18.4l7-23.1H329
		L320,67.6c-1.6,5-1.3,9.4,4,9.4c3.8,0,7.1-2.9,9.8-6.4l10-32.8h14.4l-14.4,47c10.2-6.2,15.9-14.7,20.9-24.6
		c1.9,0.1,4.6,1.6,5.6,2.8c-6.6,14.4-15.2,24.1-29.2,30.7l-0.6,2c-6.1,20-17.4,24.9-25.9,24.9c-8.7,0-13.8-4.8-13.8-11.6
		c0-12.9,18-14.9,26.6-17.2l2.7-8.7c-3.6,3.6-7.7,5.8-12.7,5.8c-8.4,0-12.4-4.6-13.1-10.9c-4.2,4.7-9.5,8.2-16.4,8.7
		c2,4.6,1.9,10.4-0.2,17.1c-3,9.7-9.1,18.6-21.3,18.6c-13.5,0-14.3-11.4-11.4-20.6l8.1-26.6c-3.5,2-7.6,3.1-12.4,3.4
		c-5.4,6.1-13.2,10.2-22.2,10.2c-10.4,0-18.2-5.3-21.2-13.6c-5.8,8.1-13.1,13.6-22.3,13.6c-9.1,0-13.1-4.7-14-11.3
		c-5.5,6.9-12.3,11.3-20.7,11.3c-10.4,0-14.2-6.5-14.1-14.6c-3.9,2.7-8.5,4.2-14.1,4.4c-5.4,6.1-13.2,10.2-22.2,10.2
		c-13.4,0-22.5-8.8-22.5-21.4c0-14.9,12.5-30.6,30.1-30.6c13.1,0,22.6,8.6,22.6,21.4c0,4.4-1.1,8.9-3.1,12.9
		c5.5-1.5,9.4-5.3,12-10.4l3.6-12.2h-5.9l3.2-10.8h6l3.8-12.6l15.7-4.3l-5.2,16.9h20.2l3.9-12.6l15.6-4.3l-5.2,16.9h13.1l-3.3,10.8
		h-13l-6.2,20.3c-2.1,6.8-0.1,9.9,4.1,9.9c5.7,0,11.8-6.4,16.4-14c1.4-14,13.4-27.9,30-27.9c13.1,0,22.6,8.6,22.6,21.4
		c0,4.4-1.1,8.9-3.1,12.9c5.3-1.5,9.1-5,11.8-9.9l9.9-32.3C280.7,18.2,287.4,13.5,294.2,13.5 M282.1,60.6
		c8.4-2.5,11.4-8.1,17.3-28.6c1.3-4.7-0.6-7.2-3.1-7.2c-1.9,0-3.5,1.3-4.7,4.9L282.1,60.6 M229.2,77.2c2.3,0,4.5-0.7,6.6-2.1
		c-1-1.3-1.6-3-1.6-4.8c0-4.4,3.5-8.1,8-8.1c0.6,0,1.2,0.1,1.7,0.2c0.2-1.1,0.4-2.4,0.4-3.5c0-7.7-4.7-10.3-9.1-10.3
		c-7.5,0-14.9,8.7-14.9,18.4C220.3,74.5,224.8,77.2,229.2,77.2 M155.3,78.8c6.6,0,14-8.7,18.5-18l3.7-12.2h-20.3L151,68.8
		C149.1,75.6,151,78.8,155.3,78.8 M100.6,77.2c2.3,0,4.5-0.7,6.6-2.1c-1-1.3-1.6-3-1.6-4.8c0-4.4,3.5-8.1,8-8.1
		c0.6,0,1.2,0.1,1.7,0.2c0.2-1.1,0.4-2.4,0.4-3.5c0-7.7-4.7-10.3-9.1-10.3c-7.5,0-14.9,8.7-14.9,18.4
		C91.8,74.5,96.3,77.2,100.6,77.2 M271,112.7c3.9,0,7.1-3.8,9.4-11c2.6-7.9,1.8-13.6-2.1-16.1c-1.2-0.3-2.4-0.8-3.5-1.3l-6.8,22.1
		C266.9,109.9,267.6,112.7,271,112.7 M313.4,112.6c4.7,0,9.1-4.8,11.7-13.3c-7.6,1.9-16.5,3.6-16.5,9
		C308.6,110.6,310.2,112.6,313.4,112.6 M76.1,0C60.5,0,48.7,12.8,41,38.1c-1.5-1.2-2.3-2.9-2.3-5c0-1.6,0.5-4.7,3.6-7.8
		c1.9-1.9,2.1-5,0.3-7l-8.3-10c-1-1.3-2.5-1.9-4-1.9c-1.1,0-2.2,0.3-3.1,1c-7.7,5.7-12.2,14.5-12.2,24c0,12.5,7.5,22.1,20.1,25.9
		c-0.4,1.1-0.8,2.2-1.2,3.2c-4.8-2.4-9.5-3.5-14.1-3.5C6.8,56.9,0,65.6,0,74.2C0,83,7.2,92.5,23,92.5c5.3,0,10.2-1.1,14.7-3.2
		C47.6,99.7,59.9,112,76.4,112c8.5,0,16.2-3,22.7-9c2-1.8,2.3-4.8,0.7-6.9L98.4,94c0.6,0,1.1,0,1.7,0c9.3,0,18-3.7,24.7-10.4
		c2.7-0.3,5.2-0.8,7.5-1.6c0.9,2.6,2.2,4.9,4,6.7c3.4,3.5,8.2,5.3,14.2,5.3c6.8,0,13.1-2.4,18.8-7.1c3.3,4.6,8.7,7.1,15.9,7.1
		c8,0,15.2-3.3,21.5-9.7c5,6.1,12.9,9.7,22,9.7c9.3,0,18-3.7,24.7-10.4c0.7-0.1,1.3-0.1,2-0.2l-5.2,16.9c-2.6,8.3-2,15.9,1.7,20.9
		c2.2,3,6.5,6.5,14.7,6.5c12.6,0,21.9-7.9,26.3-22.3c1.6-5.3,2.2-10.2,1.6-14.6c2.7-0.8,5.3-2.1,7.7-3.8c1.5,2.1,3.4,3.8,5.8,5
		c-6.6,3.1-12.2,8.1-12.2,16.9c0,9.9,7.8,16.9,19,16.9c6.6,0,22.9-2.8,30.8-28.4c13.4-6.8,22.6-16.8,29.6-32.2
		c0.8-1.8,0.6-4-0.7-5.5c-2-2.4-6.2-4.5-9.4-4.6c-0.1,0-0.2,0-0.3,0c-2,0-3.8,1.1-4.7,2.9c-1.6,3.1-3.3,6.3-5.3,9.4l8.5-27.9
		c0.5-1.6,0.2-3.3-0.8-4.6c-1-1.3-2.5-2.1-4.2-2.1h-14.4c-2.3,0-4.3,1.5-5,3.7L329.2,68c-1.8,2.2-3.4,3.4-4.7,3.6
		c0.1-0.5,0.2-1.4,0.6-2.5l9.1-29.9c0.5-1.6,0.2-3.3-0.8-4.6c-1-1.3-2.5-2.1-4.2-2.1h-14.4c-0.9,0-1.7,0.2-2.4,0.6
		c1.4-6.8,0.2-13.1-3.5-17.8c-3.4-4.4-8.7-7-14.6-7c-10,0-18.1,7.1-21.8,19l-8.5,27.8c-1.4-13.8-12.7-23.5-27.7-23.5
		c-9.4,0-17.4,3.7-23.4,9.3l0.5-1.6c0.5-1.6,0.2-3.3-0.8-4.7c-1-1.3-2.6-2.1-4.2-2.1h-6l3.1-10.1c0.6-1.8,0.1-3.8-1.2-5.2
		c-1-1-2.4-1.6-3.8-1.6c-0.5,0-0.9,0.1-1.4,0.2l-15.6,4.3c-1.7,0.5-3.1,1.8-3.6,3.5l-2.8,8.9h-9.2l3.1-10.1c0.6-1.8,0.1-3.8-1.2-5.2
		c-1-1-2.4-1.6-3.8-1.6c-0.5,0-0.9,0.1-1.4,0.2l-15.7,4.3c-1.7,0.5-3.1,1.8-3.6,3.5l-2.7,8.9h-2.1c-2.3,0-4.4,1.5-5,3.7l-2.8,9.2
		c-4.5-8.5-13.6-13.8-24.8-13.8c-5.8,0-11.3,1.4-16.3,4.2c3.1-5.4,4.8-11,4.8-16.3C96.1,7.8,88.1,0,76.1,0L76.1,0z M68.4,33.3
		c3.2-8.2,6.3-11.8,7.8-12.7c0,0,0,0,0,0C76.3,23.9,73.4,29.1,68.4,33.3L68.4,33.3z M60.8,57.8c5.8-1.4,11-3.6,15.6-6.6
		c-2.6,5.1-4.1,10.7-4.1,16.2c0,7.5,2.6,14,7.2,18.6c-2.3,1.3-4,1.5-5.5,1.5c-6.5,0-13.3-6.1-20.6-12.6c0,0-0.1-0.1-0.1-0.1
		c2.8-4.3,5-9.4,6.9-15.4L60.8,57.8L60.8,57.8z M229,72c-1.7,0-3.5-0.7-3.5-5c0-7.1,5.3-13.2,9.6-13.2c1.4,0,3.3,0.4,3.7,3.6
		c-5.7,1.5-9.9,6.7-9.9,12.9C228.9,70.9,229,71.4,229,72L229,72z M195.7,53.8h7.9c-1.3,3-2.1,6.1-2.6,9.2c-4.4,6.9-8.6,10.2-11,10.5
		c0-0.6,0.1-1.6,0.6-3.2L195.7,53.8L195.7,53.8z M161.1,53.8h9.3l-1.5,5c-4.4,8.9-10.2,14.4-13.4,14.7c0-0.6,0.1-1.6,0.6-3.2
		L161.1,53.8L161.1,53.8z M100.5,72c-1.7,0-3.5-0.7-3.5-5c0-7.1,5.3-13.2,9.6-13.2c1.4,0,3.3,0.4,3.7,3.6c-5.7,1.5-9.9,6.7-9.9,12.9
		C100.4,70.9,100.5,71.4,100.5,72L100.5,72z M283.9,73.6c7.7-2.3,13.2-5.6,17.8-12.6c-4.8,8.8-9.6,12.9-15,12.9
		C285.7,73.9,284.8,73.8,283.9,73.6L283.9,73.6z M275.5,99.9l0.2-0.7C275.7,99.4,275.6,99.7,275.5,99.9L275.5,99.9z"/>
</g>
</svg>
