<?xml version="1.0" encoding="utf-8"?>
<!-- Generator: Adobe Illustrator 27.4.1, SVG Export Plug-In . SVG Version: 6.00 Build 0)  -->
<svg version="1.1" id="Layer_1" xmlns="http://www.w3.org/2000/svg" xmlns:xlink="http://www.w3.org/1999/xlink" x="0px" y="0px"
	 viewBox="0 0 405 125" style="enable-background:new 0 0 405 125;" xml:space="preserve">
<style type="text/css">
	.st0{fill:#3F0337;}
	.st1{fill:#F800FF;}
</style>
<g>
	<path class="st0" d="M298.3,125c-5.7,0-10-1.8-12.6-5.4c-3.2-4.3-3.7-11.1-1.3-18.6l6.5-21.2c-2.2,0.7-4.5,1.1-7,1.3
		c-6.3,6.7-14.6,10.3-23.5,10.3c-9.6,0-17.5-4.3-21.8-11.4c-5.3,6.4-11.6,11.4-19.6,15.4l-0.3,0.9c-7.1,23.4-20.9,26.8-28.4,26.8
		c-9.8,0-16.4-5.7-16.4-14.3c0-10.9,10.2-15.1,19.2-17.5c-0.3,0-0.6,0-0.9,0c-7.3,0-13.1-3.5-16.3-9.5c-5.7,6.3-11.8,9.5-18.3,9.5
		c-5.8,0-8.9-2.6-10.5-4.7c-3.1-4.1-3.5-11-1.3-18.4l3.5-11c0.9-3,0.7-4.8,0.3-5.4c-0.3-0.4-0.9-0.6-1.8-0.6c-2.4,0-4.8,1.6-7.7,5
		l-9.8,32.3c-0.3,1.1-1.4,1.9-2.5,1.9h-14.4c-0.8,0-1.6-0.4-2.1-1.1c-0.2-0.3-0.3-0.6-0.4-0.9c-3.4,1.9-7,2.8-10.8,2.8
		c-6.7,0-10.3-2.9-12.1-5.3c-1.2-1.5-2-3.4-2.4-5.5c-4,9-13.4,16.1-27.8,16.1c-9.5,0-17.7-3-23.8-8.8H21.7c-0.8,0-1.6-0.4-2.1-1.1
		c-0.5-0.7-0.6-1.5-0.4-2.3l9.7-31.9c0,0-10.4,8.4-10.4,8.4c-0.5,0.4-1.1,0.6-1.6,0.6c-0.7,0-1.4-0.3-1.9-0.8
		c-4.6-5-7.3-12.2-7.3-19.5c0-23,22.8-33.5,43.9-33.5c23.5,0,38.7,9.9,38.7,25.2c0,7.9-4,14.8-11,19c4,3.4,6.8,7.8,7.9,12.8l8.6-28
		c0.3-1.1,1.4-1.9,2.5-1.9h14.4c0.8,0,1.6,0.4,2.1,1.1c0.5,0.7,0.6,1.5,0.4,2.3l-10.3,33.6c-0.7,2.4-0.5,3.7-0.3,4
		c0.1,0.2,0.5,0.2,0.9,0.2c3.6,0,8.1-5.4,13.5-16.1l7.1-23.2c0.3-1.1,1.4-1.9,2.5-1.9H143c0.8,0,1.6,0.4,2.1,1.1
		c0.2,0.2,0.3,0.5,0.4,0.8c3.1-1.8,6.3-2.7,9.6-2.7c6.4,0,10,3,11.8,5.5c3.4,4.6,4,11.5,1.7,19l-4.4,14.5c-0.5,1.6-0.6,2.6-0.6,3.1
		c2-0.3,5.5-3.5,10.2-11.6c2.5-15,14-30.4,29.3-30.4c5.4,0,9.9,1.9,13,5.4l0.8-2.7c0.3-1.1,1.4-1.8,2.5-1.8h14.4
		c0.8,0,1.6,0.4,2.1,1.1c0.5,0.7,0.6,1.5,0.4,2.3L224.2,78c4.2-3.7,7.8-8.2,11.1-14c1.6-14.6,14.4-30,32.6-30
		c14.9,0,25.3,9.9,25.3,24c0,2.5-0.3,5.1-1,7.7c1.8-1.4,3.3-3.3,4.6-5.7l9.8-32.2c3.4-10.8,10.6-17.3,19.4-17.3
		c5.1,0,9.6,2.1,12.5,6c3.5,4.5,4.4,10.6,2.6,17.2c-7.3,27.2-13.5,33.7-28,37.6l-1.1,3.7c2.3,0.9,4.3,1.3,6.4,1.3
		c7,0,12.9-5.3,18.6-16.8l7-22.9c0.3-1.1,1.4-1.9,2.5-1.9H361c0.8,0,1.6,0.4,2.1,1.1c0.5,0.7,0.6,1.5,0.4,2.3l-9.1,29.9
		c-1,3.1-0.8,4.8-0.4,5.4c0.3,0.5,1.2,0.6,1.9,0.6c2.3,0,4.8-1.6,7.5-5l9.9-32.4c0.3-1.1,1.4-1.9,2.5-1.9h14.4
		c0.8,0,1.6,0.4,2.1,1.1c0.5,0.7,0.6,1.5,0.4,2.3l-12.1,39.7c6.5-5.6,10.5-12.4,13.8-19.1c0.4-0.9,1.4-1.5,2.3-1.5c0,0,0.1,0,0.1,0
		c2.7,0.1,6.1,2.1,7.5,3.7c0.6,0.8,0.8,1.9,0.4,2.8c-7,15.2-16.1,25-29.5,31.6l-0.3,0.9c-7.1,23.4-20.9,26.8-28.4,26.8
		c-9.8,0-16.4-5.7-16.4-14.3c0-10.9,10.1-15.1,19.1-17.5c-7.1,0-12.2-3-14.5-8.5c-3.5,3-7.4,5-11.6,5.8c1.1,4.6,0.7,9.8-1.1,15.8
		C318,117.9,309.8,125,298.3,125z M302.4,107.2c-0.6,1.8-0.3,2.6-0.2,2.8c0,0,0.2,0.1,0.7,0.1c3.4,0,5.8-5.8,7-9.2
		c2-6.3,1.8-11-0.7-13c-0.2-0.1-0.5-0.1-0.7-0.2L302.4,107.2z M352.7,103c-4.8,1.2-9.7,2.9-9.7,5.2c0,1.1,0.8,1.7,2.2,1.7
		C347.9,110,350.6,107.4,352.7,103z M196.4,103c-4.8,1.2-9.7,2.9-9.7,5.2c0,0.8,0.4,1.7,2.1,1.7C191.6,110,194.3,107.5,196.4,103z
		 M42,76c2.6,2.1,6.6,3.4,11.1,3.4c9.4,0,14.3-6.3,14.3-12.6c0-3.3-1.7-7.8-6.5-10.4c-3.9-0.1-7.8-0.6-12.4-1.9L42,76z M266.9,51
		c-5.6,0-12.3,7.1-12.3,15.8c0,6.6,3.9,7.6,6.3,7.6c1,0,2.1-0.2,3-0.6c-0.4-1.2-0.6-2.4-0.6-3.7c0-5.7,4.4-10.4,10-10.7
		c0-0.3,0-0.5,0-0.7C273.4,51.7,268.9,51,266.9,51z M205,52.5c-5.2,0-11.2,8.4-11.2,15.8c0,1.7,0.4,5.8,4.4,5.8
		c5.3,0,11.4-8.4,11.4-15.7C209.6,54.7,207.9,52.5,205,52.5z M328.1,27.1c-1.1,0-1.9,2-2.2,3.1l-7.7,25.1c3.5-3.1,6.2-9.4,10.5-24.3
		c0.5-1.9,0.3-3.1,0-3.6C328.7,27.2,328.5,27.1,328.1,27.1z M37.4,24.7C28,28.6,26.9,36.3,26.9,39.8c0,3.2,0.9,6.6,2.6,9.4
		c0.1,0.2,0.2,0.4,0.2,0.6L37.4,24.7z M52.4,42.2c1.6,0.3,3.2,0.4,5,0.4c12.2,0,12.6-8.9,12.6-9.9c0-6.5-6.6-8.9-11.7-9.8L52.4,42.2
		z M109.7,34.4c-6.2,0-11-4.8-11-11c0-6.3,4.8-11.2,11-11.2c6.2,0,11.1,4.9,11.1,11.2C120.8,29.5,115.9,34.4,109.7,34.4z"/>
	<path class="st0" d="M293.3,120c-5.7,0-10-1.8-12.6-5.4c-3.2-4.3-3.7-11.1-1.3-18.6l6.5-21.2c-2.2,0.7-4.5,1.1-7,1.3
		c-6.3,6.7-14.6,10.3-23.5,10.3c-9.6,0-17.5-4.3-21.8-11.4c-5.3,6.4-11.6,11.4-19.6,15.4l-0.3,0.9c-7.1,23.4-20.9,26.8-28.4,26.8
		c-9.8,0-16.4-5.7-16.4-14.3c0-10.9,10.2-15.1,19.2-17.5c-0.3,0-0.6,0-0.9,0c-7.3,0-13.1-3.5-16.3-9.5c-5.7,6.3-11.8,9.5-18.3,9.5
		c-5.8,0-8.9-2.6-10.5-4.7c-3.1-4.1-3.5-11-1.3-18.4l3.5-11c0.9-3,0.7-4.8,0.3-5.4c-0.3-0.4-0.9-0.6-1.8-0.6c-2.4,0-4.8,1.6-7.7,5
		l-9.8,32.3c-0.3,1.1-1.4,1.9-2.5,1.9h-14.4c-0.8,0-1.6-0.4-2.1-1.1c-0.2-0.3-0.3-0.6-0.4-0.9c-3.4,1.9-7,2.8-10.8,2.8
		c-6.7,0-10.3-2.9-12.1-5.3c-1.2-1.5-2-3.4-2.4-5.5c-4,9-13.4,16.1-27.8,16.1c-9.5,0-17.7-3-23.8-8.8H16.7c-0.8,0-1.6-0.4-2.1-1.1
		c-0.5-0.7-0.6-1.5-0.4-2.3l9.7-31.9c0,0-10.4,8.4-10.4,8.4c-0.5,0.4-1.1,0.6-1.6,0.6c-0.7,0-1.4-0.3-1.9-0.8
		c-4.6-5-7.3-12.2-7.3-19.5c0-23,22.8-33.5,43.9-33.5c23.5,0,38.7,9.9,38.7,25.2c0,7.9-4,14.8-11,19c4,3.4,6.8,7.8,7.9,12.8l8.6-28
		c0.3-1.1,1.4-1.9,2.5-1.9h14.4c0.8,0,1.6,0.4,2.1,1.1c0.5,0.7,0.6,1.5,0.4,2.3L99.9,66.8c-0.7,2.4-0.5,3.7-0.3,4
		c0.1,0.2,0.5,0.2,0.9,0.2c3.6,0,8.1-5.4,13.5-16.1l7.1-23.2c0.3-1.1,1.4-1.9,2.5-1.9H138c0.8,0,1.6,0.4,2.1,1.1
		c0.2,0.2,0.3,0.5,0.4,0.8c3.1-1.8,6.3-2.7,9.6-2.7c6.4,0,10,3,11.8,5.5c3.4,4.6,4,11.5,1.7,19l-4.4,14.5c-0.5,1.6-0.6,2.6-0.6,3.1
		c2-0.3,5.5-3.5,10.2-11.6c2.5-15,14-30.4,29.3-30.4c5.4,0,9.9,1.9,13,5.4l0.8-2.7c0.3-1.1,1.4-1.8,2.5-1.8h14.4
		c0.8,0,1.6,0.4,2.1,1.1c0.5,0.7,0.6,1.5,0.4,2.3L219.2,73c4.2-3.7,7.8-8.2,11.1-14c1.6-14.6,14.4-30,32.6-30
		c14.9,0,25.3,9.9,25.3,24c0,2.5-0.3,5.1-1,7.7c1.8-1.4,3.3-3.3,4.6-5.7l9.8-32.2c3.4-10.8,10.6-17.3,19.4-17.3
		c5.1,0,9.6,2.1,12.5,6c3.5,4.5,4.4,10.6,2.6,17.2c-7.3,27.2-13.5,33.7-28,37.6l-1.1,3.7c2.3,0.9,4.3,1.3,6.4,1.3
		c7,0,12.9-5.3,18.6-16.8l7-22.9c0.3-1.1,1.4-1.9,2.5-1.9H356c0.8,0,1.6,0.4,2.1,1.1s0.6,1.5,0.4,2.3l-9.1,29.9
		c-1,3.1-0.8,4.8-0.4,5.4c0.3,0.5,1.2,0.6,1.9,0.6c2.3,0,4.8-1.6,7.5-5l9.9-32.4c0.3-1.1,1.4-1.9,2.5-1.9h14.4
		c0.8,0,1.6,0.4,2.1,1.1c0.5,0.7,0.6,1.5,0.4,2.3l-12.1,39.7c6.5-5.6,10.5-12.4,13.8-19.1c0.4-0.9,1.4-1.5,2.3-1.5c0,0,0.1,0,0.1,0
		c2.7,0.1,6.1,2.1,7.5,3.7c0.6,0.8,0.8,1.9,0.4,2.8c-7,15.2-16.1,25-29.5,31.6l-0.3,0.9c-7.1,23.4-20.9,26.8-28.4,26.8
		c-9.8,0-16.4-5.7-16.4-14.3c0-10.9,10.1-15.1,19.1-17.5c-7.1,0-12.2-3-14.5-8.5c-3.5,3-7.4,5-11.6,5.8c1.1,4.6,0.7,9.8-1.1,15.8
		C313,112.9,304.8,120,293.3,120z M297.3,102.1c-0.6,1.8-0.3,2.6-0.2,2.8c0,0,0.2,0.1,0.7,0.1c3.4,0,5.8-5.8,7-9.2
		c2-6.3,1.8-11-0.7-13c-0.2-0.1-0.5-0.1-0.7-0.2L297.3,102.1z M347.7,98c-4.8,1.2-9.7,2.9-9.7,5.2c0,1.1,0.8,1.7,2.2,1.7
		C342.9,105,345.6,102.4,347.7,98z M191.4,98c-4.8,1.2-9.7,2.9-9.7,5.2c0,0.8,0.4,1.7,2.1,1.7C186.6,105,189.3,102.4,191.4,98z
		 M37,71c2.6,2.1,6.6,3.4,11.1,3.4c9.4,0,14.3-6.3,14.3-12.6c0-3.3-1.7-7.8-6.5-10.4c-3.9-0.1-7.8-0.6-12.4-1.9L37,71z M261.9,45.9
		c-5.6,0-12.3,7.1-12.3,15.8c0,6.6,3.9,7.6,6.3,7.6c1,0,2.1-0.2,3-0.6c-0.4-1.2-0.6-2.4-0.6-3.7c0-5.7,4.4-10.4,10-10.7
		c0-0.3,0-0.5,0-0.7C268.4,46.7,263.8,45.9,261.9,45.9z M200,47.5c-5.2,0-11.2,8.4-11.2,15.8c0,1.7,0.4,5.8,4.4,5.8
		c5.3,0,11.4-8.4,11.4-15.7C204.6,49.7,202.9,47.5,200,47.5z M323.1,22.1c-1.1,0-1.9,2-2.2,3.1l-7.7,25.1c3.5-3.1,6.2-9.4,10.5-24.3
		c0.5-1.9,0.3-3.1,0-3.6C323.7,22.2,323.5,22.1,323.1,22.1z M32.4,19.7C23,23.6,21.9,31.3,21.9,34.8c0,3.2,0.9,6.6,2.6,9.4
		c0.1,0.2,0.2,0.4,0.2,0.6L32.4,19.7z M47.3,37.2c1.6,0.3,3.2,0.4,5,0.4c12.2,0,12.6-8.9,12.6-9.9c0-6.5-6.6-8.9-11.7-9.8L47.3,37.2
		z M104.7,29.4c-6.2,0-11-4.8-11-11c0-6.3,4.8-11.2,11-11.2c6.2,0,11.1,4.9,11.1,11.2C115.8,24.5,110.9,29.4,104.7,29.4z"/>
	<path class="st1" d="M46.6,5.3c19.6,0,36.1,7.6,36.1,22.6c0,8.2-4.9,15.2-13.5,18.7c7.5,4.2,10.9,11.3,10.9,18.5
		c0,12.8-10.4,24-27.4,24c-9.8,0-17.5-3.5-22.8-8.8H16.7l19.6-64.5c-12.9,2.9-17.1,11.6-17.1,19.1c0,4,1.3,7.9,3,10.8l-10.4,8.4
		C7.3,49,5.2,42.4,5.2,36.1C5.2,19.9,19.4,5.3,46.6,5.3 M52.4,40.3c12.9,0,15.2-8.9,15.2-12.5c0-6.8-5.6-11.6-16.2-12.7L44,39.2
		C46.9,39.9,49.4,40.3,52.4,40.3 M48.1,77c10.9,0,17-7.7,17-15.2c0-4.8-2.8-10.2-8.5-13c-4.9,0-9.6-0.9-14.8-2.5L34,71.8
		C37.1,75.1,42.3,77,48.1,77 M321.1,8.2c9.3,0,15.7,8.4,12.6,19.9c-7.4,27.7-13.3,32.6-27.5,36.1l-2.3,7.3c3.5,1.7,6.6,2.5,9.6,2.5
		c9.7,0,16.3-8.8,21.1-18.4l7-23.1H356l-9.1,29.9c-1.6,5-1.3,9.4,4,9.4c3.8,0,7.1-2.9,9.9-6.4l10.1-32.9h14.4l-14.4,47.2
		c10.3-6.2,16-14.7,20.9-24.7c1.9,0.1,4.6,1.6,5.6,2.8c-6.6,14.4-15.2,24.2-29.3,30.8l-0.6,2c-6.1,20-17.5,25-25.9,25
		c-8.7,0-13.8-4.8-13.8-11.6c0-12.9,18-14.9,26.6-17.3l2.7-8.7c-3.6,3.7-7.7,5.8-12.7,5.8c-8.4,0-12.4-4.6-13.1-10.9
		c-4.2,4.7-9.5,8.2-16.5,8.7c2,4.6,1.9,10.5-0.2,17.2c-3,9.8-9.1,18.7-21.3,18.7c-13.5,0-14.3-11.5-11.4-20.6l8.2-26.7
		c-3.5,2-7.6,3.1-12.4,3.4c-5.4,6.1-13.2,10.3-22.3,10.3c-10.5,0-18.3-5.4-21.3-13.7c-5.6,7.9-12.6,13.9-22.3,18.6l-0.6,2
		c-6.1,20-17.5,25-25.9,25c-8.7,0-13.8-4.8-13.8-11.6c0-12.9,17.9-14.9,26.6-17.3l2.3-7.7c-3.8,3.1-8.3,4.8-13.2,4.8
		c-7.6,0-13.4-4.2-15.4-12c-5.5,7.3-11.9,12-19.2,12c-11.5,0-11.8-11.4-9.3-19.7l3.5-11c1.6-5,1-9.4-4-9.4c-3.9,0-7.2,2.9-10.1,6.4
		l-10,32.8h-14.4L110,77c-4.4,4.2-9.4,6.7-15.1,6.7c-11.5,0-14.4-9.6-10.9-21l9.3-30.2h14.4L97.4,66c-1.3,4.2-0.7,7.6,3.2,7.6
		c5.4,0,10.6-7,15.9-17.8l7.1-23.4H138l-2,6.4c4.1-4.6,8.8-7.3,14.1-7.3c11.2,0,14.3,10.5,11,21l-4.4,14.5c-1.1,3.4-1.2,6.5,1.8,6.5
		c3.7,0,8.3-5.3,12.8-13.4c2.2-14.4,13-28.6,26.8-28.6c6.6,0,11.4,3.2,13.8,9.1l2.6-8.2h14.4l-14.5,47.2c8.6-5.2,14-11.9,18.5-19.9
		c1.3-14.1,13.4-28.2,30-28.2c13.1,0,22.7,8.6,22.7,21.4c0,4.4-1.1,8.9-3.1,12.9c5.3-1.5,9.1-5,11.8-9.9l9.9-32.4
		C307.5,12.8,314.3,8.2,321.1,8.2 M308.9,55.4c8.4-2.5,11.4-8.1,17.4-28.7c1.3-4.7-0.6-7.2-3.2-7.2c-1.9,0-3.6,1.3-4.7,4.9
		L308.9,55.4 M255.9,72c2.3,0,4.5-0.7,6.6-2.1c-1-1.3-1.6-3-1.6-4.8c0-4.4,3.5-8.1,8-8.1c0.6,0,1.2,0.1,1.7,0.2
		c0.2-1.1,0.4-2.4,0.4-3.6c0-7.7-4.7-10.4-9.1-10.4c-7.5,0-14.9,8.7-14.9,18.5C247,69.4,251.6,72,255.9,72 M193.2,71.7
		c7.2,0,14-9.9,14-18.4c0-5.7-3.3-8.5-7.2-8.5c-7,0-13.8,9.9-13.8,18.5C186.2,68.7,189,71.7,193.2,71.7 M297.8,107.7
		c3.9,0,7.1-3.9,9.5-11.1c2.6-7.9,1.8-13.6-2.1-16.2c-1.2-0.3-2.4-0.8-3.6-1.3l-6.8,22.2C293.7,104.8,294.4,107.7,297.8,107.7
		 M340.3,107.6c4.7,0,9.1-4.8,11.7-13.3c-7.6,1.9-16.6,3.7-16.6,9C335.4,105.5,337.1,107.6,340.3,107.6 M183.8,107.6
		c4.8,0,9.2-4.8,11.8-13.3c-7.6,1.9-16.6,3.7-16.6,9C179.1,105.5,180.7,107.6,183.8,107.6 M104.7,9.8c4.8,0,8.5,3.9,8.5,8.6
		c0,4.7-3.6,8.4-8.5,8.4c-4.7,0-8.4-3.7-8.4-8.4C96.3,13.6,99.9,9.8,104.7,9.8 M46.6,0C32.6,0,20.8,3.6,12.4,10.5
		C4.4,17.1,0,26.2,0,36.1c0,8,2.9,15.8,8,21.3c1,1.1,2.4,1.7,3.9,1.7c1.2,0,2.3-0.4,3.3-1.2l3.7-3l-7.2,23.6
		c-0.5,1.6-0.2,3.3,0.8,4.7c1,1.3,2.6,2.1,4.2,2.1h11.1c6.6,5.8,15.1,8.8,24.8,8.8c12.9,0,22.1-5.3,27.4-12.7
		c0.2,0.4,0.5,0.7,0.7,1.1c2.2,2.9,6.4,6.4,14.2,6.4c3.4,0,6.8-0.7,9.9-2.1c0.9,0.8,2.1,1.2,3.4,1.2h14.4c2.3,0,4.3-1.5,5-3.7
		l9.7-31.8c1.9-2.2,3.5-3.5,4.9-3.7c0,0.6-0.2,1.4-0.5,2.5l-3.4,11c-1.2,4-3.5,13.9,1.6,20.8c1.9,2.6,5.7,5.8,12.6,5.8
		c6.4,0,12.4-2.6,17.9-7.9c2,2.6,4.5,4.7,7.5,6c-6.4,3.1-11.8,8.1-11.8,16.7c0,10,7.8,16.9,19,16.9c6.7,0,23-2.8,30.9-28.5
		c6.8-3.5,12.4-7.8,17.2-13c5,6.1,12.9,9.7,22,9.7c9.3,0,18-3.7,24.7-10.4c0.7-0.1,1.3-0.1,2-0.2l-5.2,16.9
		c-2.6,8.3-2,15.9,1.7,20.9c2.2,3,6.5,6.5,14.7,6.5c12.6,0,21.9-8,26.3-22.4c1.6-5.3,2.2-10.2,1.6-14.6c2.7-0.8,5.3-2.1,7.8-3.8
		c1.5,2.1,3.4,3.9,5.8,5.1c-6.6,3.1-12.3,8.1-12.3,17c0,10,7.8,16.9,19,16.9c6.7,0,23-2.8,30.9-28.5c13.4-6.8,22.6-16.9,29.7-32.3
		c0.8-1.8,0.6-4-0.7-5.5c-2-2.4-6.2-4.5-9.4-4.7c-0.1,0-0.2,0-0.3,0c-2,0-3.8,1.1-4.7,2.9c-1.6,3.1-3.3,6.3-5.3,9.4l8.5-28
		c0.5-1.6,0.2-3.3-0.8-4.7c-1-1.3-2.6-2.1-4.2-2.1h-14.4c-2.3,0-4.3,1.5-5,3.7l-9.8,31.9c-1.8,2.2-3.4,3.4-4.7,3.6
		c0.1-0.5,0.2-1.4,0.6-2.5l9.1-30c0.5-1.6,0.2-3.3-0.8-4.7c-1-1.3-2.6-2.1-4.2-2.1h-14.4c-0.9,0-1.7,0.2-2.4,0.6
		c1.4-6.8,0.2-13.1-3.5-17.9c-3.4-4.5-8.8-7-14.6-7c-10,0-18.1,7.1-21.9,19.1l-8.5,27.9c-1.5-13.8-12.7-23.6-27.8-23.6
		c-19.7,0-33.1,16-35.1,31.8c-0.8,1.4-1.6,2.7-2.5,4l8.6-28.1c0.5-1.6,0.2-3.3-0.8-4.7c-1-1.3-2.6-2.1-4.2-2.1h-14.4
		c-1.9,0-3.6,1-4.5,2.6c-3.3-2.3-7.3-3.5-11.8-3.5c-16.6,0-29,16.1-31.8,32.1c-1,1.8-2,3.3-2.8,4.5l2.7-8.8c2.5-8.2,1.8-16-2.1-21.3
		c-2.2-3-6.4-6.5-13.9-6.5c-3.1,0-6.1,0.7-8.9,2c-0.9-0.7-2-1.1-3.2-1.1h-14.4c-2.3,0-4.3,1.5-5,3.7l-7,23
		c-4.4,8.7-7.4,12.2-9.1,13.6L112.6,34c0.4-1.4,0.2-2.9-0.5-4.2c3.8-2.4,6.2-6.6,6.2-11.5c0-7.8-6-13.8-13.7-13.8
		C97.1,4.5,91,10.7,91,18.3c0,3.4,1.2,6.5,3.2,8.9h-1c-2.3,0-4.3,1.5-5,3.7l-6.4,20.8c-1-1.6-2.1-3.2-3.4-4.6
		c6-4.7,9.5-11.6,9.5-19.3C87.9,10.9,71.7,0,46.6,0L46.6,0z M50.8,35L55,21c3.6,1,7.3,2.9,7.3,6.7c0,1.7-0.7,7.3-9.9,7.3
		C51.8,35,51.3,35,50.8,35L50.8,35z M24.6,36.2c-0.1-0.5-0.1-1-0.1-1.5c0-2.4,0.6-5.8,3.2-8.8L24.6,36.2L24.6,36.2z M255.8,66.8
		c-1.7,0-3.5-0.7-3.5-5c0-7.1,5.3-13.2,9.6-13.2c1.4,0,3.3,0.4,3.7,3.6c-5.7,1.5-10,6.7-10,12.9C255.7,65.7,255.7,66.2,255.8,66.8
		L255.8,66.8z M193.2,66.5c-0.5,0-1.8,0-1.8-3.1c0-6.2,5.1-13.2,8.6-13.2c0.6,0,2,0,2,3.2C201.9,59.7,196.8,66.5,193.2,66.5
		L193.2,66.5z M40.1,69.9l5.3-17.2c3.5,0.8,6.7,1.2,9.9,1.3c3.4,2.1,4.6,5.3,4.6,7.8c0,4.9-4,9.9-11.7,9.9
		C45,71.8,42.2,71.1,40.1,69.9L40.1,69.9z M310.7,68.5c7.7-2.3,13.2-5.7,17.8-12.7c-4.8,8.8-9.7,13-15.1,13
		C312.6,68.8,311.7,68.7,310.7,68.5L310.7,68.5z M302.3,94.8l0.2-0.6C302.5,94.4,302.4,94.6,302.3,94.8L302.3,94.8z"/>
</g>
</svg>
