<?xml version="1.0" encoding="utf-8"?>
<!-- Generator: Adobe Illustrator 27.4.1, SVG Export Plug-In . SVG Version: 6.00 Build 0)  -->
<svg version="1.1" id="Layer_1" xmlns="http://www.w3.org/2000/svg" xmlns:xlink="http://www.w3.org/1999/xlink" x="0px" y="0px"
	 viewBox="0 0 325 125" style="enable-background:new 0 0 325 125;" xml:space="preserve">
<style type="text/css">
	.st0{fill:#1D4702;}
	.st1{fill:#7CFC00;}
</style>
<g>
	<path class="st0" d="M218.3,125c-5.7,0-10-1.8-12.6-5.4c-3.2-4.3-3.7-11.1-1.3-18.6l3.7-12.2c-3.2,1.7-6.6,2.5-10.2,2.5
		c-6.6,0-11.3-2.8-13.5-7.8c-4.6,4.7-10,8.6-16.4,11.8l-0.3,0.9c-7.1,23.4-20.9,26.8-28.4,26.8c-9.8,0-16.4-5.7-16.4-14.3
		c0-10.9,10.2-15.1,19.2-17.5c-0.3,0-0.6,0-0.9,0c-7.3,0-13.1-3.4-16.2-9.4c-5.6,6.2-11.9,9.4-18.8,9.4c-6.7,0-10.3-2.9-12.1-5.3
		c-3.1-4.2-3.7-10.6-1.7-18c-6.5,15.1-19.8,27.1-37.8,27.1c-8,0-15.1-2.4-21.5-7.3H21.8c-0.8,0-1.6-0.4-2.1-1.1
		c-0.5-0.7-0.6-1.5-0.4-2.3L29,52.6L18.6,61c-0.5,0.4-1.1,0.6-1.7,0.6c-0.7,0-1.4-0.3-1.9-0.8c-4.8-5.1-7.4-12.1-7.4-19.7
		c0-23,23-33.4,44.3-33.4c27.7,0,44.9,14.9,44.9,38.8c0,3.3-0.3,6.5-0.9,9.8l6-19.5c0.3-1.1,1.4-1.9,2.5-1.9h14.4
		c0.8,0,1.6,0.4,2.1,1.1c0.5,0.7,0.6,1.5,0.4,2.3l-10.3,33.6c-0.7,2.4-0.5,3.7-0.3,4c0.1,0.2,0.6,0.2,0.9,0.2c2.1,0,5.7-2,11.1-11.6
		c2.4-15,14-30.4,29.3-30.4c5.4,0,9.9,1.9,13,5.4l0.8-2.7c0.3-1.1,1.4-1.8,2.5-1.8H183c0.8,0,1.6,0.4,2.1,1.1
		c0.5,0.7,0.6,1.5,0.4,2.3L173.3,78c6.3-5.4,10.1-11.8,13.3-18l7.1-23.3c0.3-1.1,1.4-1.9,2.5-1.9h14.4c0.8,0,1.6,0.4,2.1,1.1
		c0.5,0.7,0.6,1.5,0.4,2.3l-10.3,33.6c-0.7,2.4-0.5,3.7-0.3,4c0.1,0.2,0.6,0.2,0.9,0.2c3.5,0,8-5.3,13.3-15.8l9.9-32.4
		c3.4-10.8,10.6-17.3,19.4-17.3c5.1,0,9.6,2.1,12.5,6c3.4,4.5,4.4,10.6,2.6,17.2c-7.3,27.2-13.5,33.7-28,37.6l-1.1,3.7
		c2.3,0.9,4.3,1.3,6.4,1.3c7,0,12.9-5.3,18.6-16.8l7-22.9c0.3-1.1,1.4-1.9,2.5-1.9H281c0.8,0,1.6,0.4,2.1,1.1
		c0.5,0.7,0.6,1.5,0.4,2.3l-9.1,29.9c-1,3.1-0.8,4.8-0.4,5.4c0.3,0.5,1.2,0.6,1.9,0.6c2.3,0,4.8-1.6,7.5-5l9.9-32.4
		c0.3-1.1,1.4-1.9,2.5-1.9h14.4c0.8,0,1.6,0.4,2.1,1.1c0.5,0.7,0.6,1.5,0.4,2.3l-12.1,39.7c6.5-5.6,10.5-12.4,13.8-19.1
		c0.4-0.9,1.4-1.5,2.4-1.5c0,0,0.1,0,0.1,0c2.7,0.1,6.1,2.1,7.5,3.7c0.6,0.8,0.8,1.9,0.4,2.8c-7,15.2-16.1,25-29.5,31.6l-0.3,0.9
		c-7.1,23.4-20.9,26.8-28.4,26.8c-9.8,0-16.4-5.7-16.4-14.3c0-10.9,10.1-15.1,19.1-17.5c-7.1,0-12.2-3-14.5-8.5
		c-3.5,3-7.4,5-11.6,5.8c1.1,4.6,0.7,9.8-1.1,15.8C238,117.9,229.8,125,218.3,125z M222.3,107.2c-0.6,1.8-0.3,2.6-0.2,2.8
		c0,0,0.2,0.1,0.7,0.1c3.4,0,5.8-5.8,7-9.2c2-6.3,1.8-11-0.7-13c-0.2-0.1-0.5-0.1-0.7-0.2L222.3,107.2z M272.7,103
		c-4.8,1.2-9.7,2.9-9.7,5.2c0,1.1,0.8,1.7,2.2,1.7C267.9,110,270.6,107.4,272.7,103z M145.5,103c-4.8,1.2-9.7,2.9-9.7,5.2
		c0,0.8,0.4,1.7,2.1,1.7C140.6,110,143.3,107.5,145.5,103z M42.2,75.7c2.4,1.4,5.2,2,8.4,2c19.1,0,26-19.4,26-32.4
		c0-12.6-6.1-19.7-18.5-21.5L42.2,75.7z M154.1,52.5c-5.2,0-11.2,8.4-11.2,15.8c0,1.7,0.4,5.8,4.4,5.8c5.3,0,11.4-8.4,11.4-15.7
		C158.6,54.7,157,52.5,154.1,52.5z M248.1,27.1c-1.1,0-1.9,2-2.2,3.1l-7.7,25.1c3.5-3.1,6.2-9.4,10.5-24.3c0.5-1.9,0.3-3.1,0-3.6
		C248.7,27.2,248.5,27.1,248.1,27.1z M37.2,25.5C28.4,29,27,35.7,27,39.8c0,3.3,0.9,6.7,2.6,9.4c0.1,0.2,0.2,0.4,0.3,0.6L37.2,25.5z
		 M207.6,34.4c-6.2,0-11-4.8-11-11c0-6.3,4.8-11.2,11-11.2c6.2,0,11.1,4.9,11.1,11.2C218.7,29.5,213.8,34.4,207.6,34.4z M115.9,34.4
		c-6.2,0-11-4.8-11-11c0-6.3,4.8-11.2,11-11.2c6.2,0,11.1,4.9,11.1,11.2C127,29.5,122.1,34.4,115.9,34.4z"/>
	<path class="st0" d="M213.2,120c-5.7,0-10-1.8-12.6-5.4c-3.2-4.3-3.7-11.1-1.3-18.6l3.7-12.2c-3.2,1.7-6.6,2.5-10.2,2.5
		c-6.6,0-11.3-2.8-13.5-7.8c-4.6,4.7-10,8.6-16.4,11.8l-0.3,0.9c-7.1,23.4-20.9,26.8-28.4,26.8c-9.8,0-16.4-5.7-16.4-14.3
		c0-10.9,10.2-15.1,19.2-17.5c-0.3,0-0.6,0-0.9,0c-7.3,0-13.1-3.4-16.2-9.4c-5.6,6.2-11.9,9.4-18.8,9.4c-6.7,0-10.3-2.9-12.1-5.3
		c-3.1-4.2-3.7-10.6-1.7-18c-6.5,15.1-19.8,27.1-37.8,27.1c-8,0-15.1-2.4-21.5-7.3H16.8c-0.8,0-1.6-0.4-2.1-1.1
		c-0.5-0.7-0.6-1.5-0.4-2.3L24,47.6L13.6,56c-0.5,0.4-1.1,0.6-1.7,0.6c-0.7,0-1.4-0.3-1.9-0.8c-4.8-5.1-7.4-12.1-7.4-19.7
		c0-23,23-33.4,44.3-33.4c27.7,0,44.9,14.9,44.9,38.8c0,3.3-0.3,6.5-0.9,9.8l6-19.5c0.3-1.1,1.4-1.9,2.5-1.9h14.4
		c0.8,0,1.6,0.4,2.1,1.1c0.5,0.7,0.6,1.5,0.4,2.3l-10.3,33.6c-0.7,2.4-0.5,3.7-0.3,4c0.1,0.2,0.6,0.2,0.9,0.2c2.1,0,5.7-2,11.1-11.6
		c2.4-15,14-30.4,29.3-30.4c5.4,0,9.9,1.9,13,5.4l0.8-2.7c0.3-1.1,1.4-1.8,2.5-1.8h14.4c0.8,0,1.6,0.4,2.1,1.1
		c0.5,0.7,0.6,1.5,0.4,2.3L168.2,73c6.3-5.4,10.1-11.8,13.3-18l7.1-23.3c0.3-1.1,1.4-1.9,2.5-1.9h14.4c0.8,0,1.6,0.4,2.1,1.1
		c0.5,0.7,0.6,1.5,0.4,2.3l-10.3,33.6c-0.7,2.4-0.5,3.7-0.3,4c0.1,0.2,0.6,0.2,0.9,0.2c3.5,0,8-5.3,13.3-15.8l9.9-32.4
		C225,12,232.3,5.5,241,5.5c5.1,0,9.6,2.1,12.5,6c3.4,4.5,4.4,10.6,2.6,17.2c-7.3,27.2-13.5,33.7-28,37.6l-1.1,3.7
		c2.3,0.9,4.3,1.3,6.4,1.3c7,0,12.9-5.3,18.6-16.8l7-22.9c0.3-1.1,1.4-1.9,2.5-1.9h14.4c0.8,0,1.6,0.4,2.1,1.1
		c0.5,0.7,0.6,1.5,0.4,2.3l-9.1,29.9c-1,3.1-0.8,4.8-0.4,5.4c0.3,0.5,1.2,0.6,1.9,0.6c2.3,0,4.8-1.6,7.5-5l9.9-32.4
		c0.3-1.1,1.4-1.9,2.5-1.9h14.4c0.8,0,1.6,0.4,2.1,1.1c0.5,0.7,0.6,1.5,0.4,2.3l-12.1,39.7c6.5-5.6,10.5-12.4,13.8-19.1
		c0.4-0.9,1.4-1.5,2.4-1.5c0,0,0.1,0,0.1,0c2.7,0.1,6.1,2.1,7.5,3.7c0.6,0.8,0.8,1.9,0.4,2.8c-7,15.2-16.1,25-29.5,31.6l-0.3,0.9
		c-7.1,23.4-20.9,26.8-28.4,26.8c-9.8,0-16.4-5.7-16.4-14.3c0-10.9,10.1-15.1,19.1-17.5c-7.1,0-12.2-3-14.5-8.5
		c-3.5,3-7.4,5-11.6,5.8c1.1,4.6,0.7,9.8-1.1,15.8C233,112.9,224.8,120,213.2,120z M217.3,102.1c-0.6,1.8-0.3,2.6-0.2,2.8
		c0,0,0.2,0.1,0.7,0.1c3.4,0,5.8-5.8,7-9.2c2-6.3,1.8-11-0.7-13c-0.2-0.1-0.5-0.1-0.7-0.2L217.3,102.1z M267.7,98
		c-4.8,1.2-9.7,2.9-9.7,5.2c0,1.1,0.8,1.7,2.2,1.7C262.9,105,265.6,102.4,267.7,98z M140.4,98c-4.8,1.2-9.7,2.9-9.7,5.2
		c0,0.8,0.4,1.7,2.1,1.7C135.6,105,138.3,102.4,140.4,98z M37.2,70.7c2.4,1.4,5.2,2,8.4,2c19.1,0,26-19.4,26-32.4
		c0-12.6-6.1-19.7-18.5-21.5L37.2,70.7z M149,47.5c-5.2,0-11.2,8.4-11.2,15.8c0,1.7,0.4,5.8,4.4,5.8c5.3,0,11.4-8.4,11.4-15.7
		C153.6,49.7,152,47.5,149,47.5z M243.1,22.1c-1.1,0-1.9,2-2.2,3.1l-7.7,25.1c3.5-3.1,6.2-9.4,10.5-24.3c0.5-1.9,0.3-3.1,0-3.6
		C243.6,22.2,243.5,22.1,243.1,22.1z M32.2,20.5C23.4,24,22,30.7,22,34.8c0,3.3,0.9,6.7,2.6,9.4c0.1,0.2,0.2,0.4,0.3,0.6L32.2,20.5z
		 M202.6,29.4c-6.2,0-11-4.8-11-11c0-6.3,4.8-11.2,11-11.2c6.2,0,11.1,4.9,11.1,11.2C213.7,24.5,208.8,29.4,202.6,29.4z M110.9,29.4
		c-6.2,0-11-4.8-11-11c0-6.3,4.8-11.2,11-11.2c6.2,0,11.1,4.9,11.1,11.2C122,24.5,117.1,29.4,110.9,29.4z"/>
	<path class="st1" d="M47,5.3c28.2,0,42.3,15.4,42.3,36.1c0,21.5-14.7,46.1-39.7,46.1c-7.5,0-14.3-2.3-20.6-7.3H16.8l19.3-63.6
		c-12,2.6-16.8,10.2-16.8,18.2c0,4,1.2,7.9,3,10.8L12,53.9C7.3,49,5.2,42.4,5.2,36.1C5.2,19.9,19.5,5.3,47,5.3 M45.6,75.3
		c19.8,0,28.6-19.2,28.6-35c0-13.2-6.3-22.8-23-24.4L34.1,71.8C37.7,74.5,41.7,75.3,45.6,75.3 M241,8.2c9.3,0,15.7,8.4,12.6,19.9
		c-7.4,27.7-13.3,32.6-27.5,36.1l-2.3,7.3c3.5,1.7,6.6,2.5,9.6,2.5c9.7,0,16.3-8.8,21.1-18.4l7-23.2h14.4l-9.1,29.9
		c-1.6,5-1.3,9.4,4,9.4c3.8,0,7.1-2.9,9.9-6.4l10.1-32.9h14.4l-14.4,47.2c10.3-6.2,16-14.7,20.9-24.7c1.9,0.1,4.6,1.6,5.6,2.8
		c-6.6,14.4-15.2,24.2-29.3,30.8l-0.6,2c-6.1,20-17.5,25-25.9,25c-8.7,0-13.8-4.8-13.8-11.6c0-12.9,18-14.9,26.6-17.3l2.7-8.7
		c-3.6,3.7-7.7,5.8-12.7,5.8c-8.4,0-12.4-4.6-13.1-10.9c-4.2,4.7-9.5,8.2-16.5,8.7c2,4.6,1.9,10.5-0.2,17.2
		c-3,9.8-9.1,18.7-21.3,18.7c-13.5,0-14.3-11.5-11.4-20.6l6-19.6c-4.4,4.2-9.3,6.6-15,6.6c-7.7,0-11.5-4.3-12.2-10.5
		c-5.2,6.4-11.6,11.4-19.9,15.4l-0.6,2c-6.1,20-17.5,25-25.9,25c-8.7,0-13.8-4.8-13.8-11.6c0-12.9,17.9-14.9,26.6-17.3l2.3-7.7
		c-3.8,3.1-8.3,4.8-13.2,4.8c-7.6,0-13.4-4.2-15.4-11.9c-5.4,7.4-11.8,11.9-19.6,11.9c-11.5,0-14.4-9.6-10.9-21l9.3-30.2h14.4
		L103.6,66c-1.3,4.2-0.7,7.6,3.2,7.6c4.6,0,9.1-5.2,13.6-13.4c2.1-14.4,13-28.7,26.8-28.7c6.6,0,11.4,3.2,13.8,9.1l2.6-8.2h14.4
		l-14.5,47.2c10-6,15.7-14.1,20.5-23.7l7.2-23.5h14.4L195.3,66c-1.3,4.2-0.7,7.6,3.2,7.6c5.3,0,10.5-6.9,15.8-17.4l10-32.6
		C227.5,12.8,234.2,8.2,241,8.2 M228.9,55.4c8.4-2.5,11.4-8.1,17.4-28.7c1.3-4.7-0.6-7.2-3.2-7.2c-1.9,0-3.5,1.3-4.7,4.9L228.9,55.4
		 M142.2,71.7c7.2,0,14-9.9,14-18.4c0-5.7-3.3-8.5-7.2-8.5c-7,0-13.8,9.9-13.8,18.5C135.2,68.7,138.1,71.7,142.2,71.7 M217.8,107.7
		c3.9,0,7.1-3.9,9.5-11.1c2.6-7.9,1.8-13.6-2.1-16.2c-1.2-0.3-2.4-0.8-3.5-1.3l-6.8,22.2C213.7,104.8,214.4,107.7,217.8,107.7
		 M260.3,107.6c4.7,0,9.1-4.8,11.7-13.3c-7.6,1.9-16.6,3.7-16.6,9C255.4,105.5,257.1,107.6,260.3,107.6 M132.9,107.6
		c4.8,0,9.2-4.8,11.8-13.3c-7.6,1.9-16.6,3.7-16.6,9C128.1,105.5,129.7,107.6,132.9,107.6 M202.6,9.8c4.8,0,8.5,3.9,8.5,8.6
		c0,4.7-3.6,8.4-8.5,8.4c-4.7,0-8.4-3.7-8.4-8.4C194.2,13.6,197.9,9.8,202.6,9.8 M110.9,9.8c4.8,0,8.5,3.9,8.5,8.6
		c0,4.7-3.6,8.4-8.5,8.4c-4.7,0-8.4-3.7-8.4-8.4C102.5,13.6,106.2,9.8,110.9,9.8 M47,0C32.9,0,21,3.6,12.5,10.5
		C4.4,17,0,26.1,0,36.1c0,8.3,2.9,15.9,8.1,21.5c1,1.1,2.4,1.7,3.8,1.7c1.2,0,2.3-0.4,3.3-1.2l3.7-3l-7.2,23.6
		c-0.5,1.6-0.2,3.3,0.8,4.7c1,1.3,2.6,2.1,4.2,2.1h10.4c6.7,4.9,14.1,7.3,22.4,7.3c14.7,0,26.5-7.5,34.3-18.2c0.4,3.1,1.5,5.8,3.2,8
		c2.2,2.9,6.4,6.4,14.2,6.4c6.6,0,12.8-2.6,18.3-7.8c2,2.6,4.5,4.6,7.5,6c-6.4,3.1-11.8,8.1-11.8,16.7c0,10,7.8,16.9,19.1,16.9
		c19.9,0,28.2-19.8,30.9-28.5c5.1-2.7,9.6-5.8,13.6-9.5c3,4,7.9,6.2,14,6.2c2.1,0,4.1-0.3,6.1-0.8l-2.1,7c-2.6,8.3-2,15.9,1.7,20.9
		c2.2,3,6.5,6.5,14.7,6.5c12.6,0,22-8,26.3-22.4c1.6-5.3,2.2-10.2,1.6-14.6c2.7-0.8,5.3-2.1,7.8-3.8c1.5,2.1,3.4,3.9,5.8,5.1
		c-6.6,3.1-12.3,8.1-12.3,17c0,10,7.8,16.9,19.1,16.9c19.9,0,28.2-19.8,30.9-28.5c13.4-6.8,22.6-16.9,29.7-32.3
		c0.8-1.8,0.6-4-0.7-5.6c-2-2.4-6.2-4.5-9.4-4.6c-0.1,0-0.2,0-0.3,0c-2,0-3.8,1.1-4.7,2.9c-1.6,3.1-3.3,6.3-5.3,9.4l8.5-28
		c0.5-1.6,0.2-3.3-0.8-4.7c-1-1.3-2.6-2.1-4.2-2.1h-14.4c-2.3,0-4.3,1.5-5,3.7l-9.8,31.9c-1.8,2.2-3.4,3.4-4.7,3.6
		c0.1-0.5,0.2-1.4,0.6-2.5l9.1-30c0.5-1.6,0.2-3.3-0.8-4.7c-1-1.3-2.6-2.1-4.2-2.1h-14.4c-0.9,0-1.7,0.2-2.4,0.6
		c1.4-6.8,0.2-13.1-3.5-17.9c-3.4-4.5-8.8-7-14.6-7c-10,0-18.1,7.1-21.9,19.1l-9.9,32.2c-4.3,8.5-7.2,11.9-9,13.2L210.6,34
		c0.4-1.4,0.2-2.9-0.5-4.2c3.8-2.4,6.2-6.6,6.2-11.5c0-7.8-6-13.8-13.7-13.8c-7.5,0-13.6,6.2-13.6,13.8c0,3.4,1.2,6.5,3.2,8.9h-1
		c-2.3,0-4.3,1.5-5,3.7L179.1,54c-1.6,3.1-3.1,5.8-4.8,8.2L183,34c0.5-1.6,0.2-3.3-0.8-4.7c-1-1.3-2.6-2.1-4.2-2.1h-14.4
		c-1.9,0-3.6,1-4.5,2.6c-3.3-2.3-7.3-3.5-11.8-3.5c-16.6,0-29.1,16.2-31.8,32.2c-3,5.3-5.3,7.8-6.7,8.9L118.9,34
		c0.4-1.4,0.2-2.9-0.5-4.2c3.8-2.4,6.2-6.6,6.2-11.5c0-7.8-6-13.8-13.7-13.8c-7.5,0-13.6,6.2-13.6,13.8c0,3.4,1.2,6.5,3.2,8.9h-1
		c-2.3,0-4.3,1.5-5,3.7L93.8,33C90.2,12.4,72.9,0,47,0L47,0z M40.4,69.3l14.5-47.5c9.7,2.1,14,7.9,14,18.5c0,12-6.2,29.8-23.3,29.8
		C43.7,70.1,41.9,69.8,40.4,69.3L40.4,69.3z M24.7,36.2c0-0.5-0.1-1-0.1-1.5c0-3.3,1-6,3-8.1L24.7,36.2L24.7,36.2z M142.2,66.5
		c-0.5,0-1.8,0-1.8-3.1c0-6.2,5.1-13.2,8.6-13.2c0.6,0,2,0,2,3.2C151,59.7,145.9,66.5,142.2,66.5L142.2,66.5z M230.7,68.5
		c7.7-2.3,13.2-5.7,17.8-12.7c-4.8,8.8-9.7,13-15.1,13C232.6,68.8,231.6,68.7,230.7,68.5L230.7,68.5z M222.3,94.8l0.2-0.7
		C222.5,94.3,222.4,94.6,222.3,94.8L222.3,94.8z"/>
</g>
</svg>
