<svg xmlns="http://www.w3.org/2000/svg" xmlns:xlink="http://www.w3.org/1999/xlink" width="233.487" height="186.277" viewBox="0 0 233.487 186.277">
  <defs>
    <clipPath id="clip-path">
      <rect id="Rectangle_1" data-name="Rectangle 1" width="233.487" height="186.276" fill="none"/>
    </clipPath>
  </defs>
  <g id="Group_3" data-name="Group 3" transform="translate(0 0.001)">
    <path id="Path_1" data-name="Path 1" d="M116.685,0l-8.774,17.779-19.62,2.851,14.2,13.838L99.137,54.008l17.548-9.226,17.548,9.226-3.351-19.541,14.2-13.838-19.62-2.851Z" fill="#248d30"/>
    <g id="Group_2" data-name="Group 2">
      <g id="Group_1" data-name="Group 1" clip-path="url(#clip-path)">
        <path id="Path_2" data-name="Path 2" d="M142.731,108.2V71.327a2.568,2.568,0,0,0-2.569-2.569l-7.1.023a2.569,2.569,0,0,0-2.569,2.57V109.2c0,3.625.067,6.558-3.557,6.558h-3.827V53.26l-6.426-3.378-5.779,3.038V183.451A2.55,2.55,0,0,0,113.453,186h7.11a2.55,2.55,0,0,0,2.548-2.547V126.786h3.827c3.624,0,3.557,2.932,3.557,6.557v50.093a2.569,2.569,0,0,0,2.569,2.57l7.1-.024a2.569,2.569,0,0,0,2.569-2.57V134.294a18.736,18.736,0,0,0-5.035-13.046,18.736,18.736,0,0,0,5.035-13.047"/>
        <path id="Path_3" data-name="Path 3" d="M14.783,175.38h8.333a2.55,2.55,0,0,1,2.547,2.547v5.524A2.549,2.549,0,0,1,23.116,186H2.547A2.549,2.549,0,0,1,0,183.451V112.3a2.55,2.55,0,0,1,2.547-2.546H9.689a2.55,2.55,0,0,1,2.547,2.546v60.534a2.546,2.546,0,0,0,2.547,2.547"/>
        <path id="Path_4" data-name="Path 4" d="M152,68.757h7.141a2.55,2.55,0,0,1,2.548,2.547V183.45A2.549,2.549,0,0,1,159.145,186H152a2.55,2.55,0,0,1-2.547-2.547V71.3A2.546,2.546,0,0,1,152,68.757"/>
        <path id="Path_5" data-name="Path 5" d="M191.887,95.374H183.64a2.551,2.551,0,0,0-2.547,2.548v25.567a2.55,2.55,0,0,0,2.547,2.547h8.247a2.551,2.551,0,0,1,2.548,2.548v5.523a2.55,2.55,0,0,1-2.548,2.548H183.64a2.55,2.55,0,0,0-2.547,2.547v44.249A2.55,2.55,0,0,1,178.545,186H171.4a2.55,2.55,0,0,1-2.547-2.547V87.3a2.55,2.55,0,0,1,2.547-2.547h20.483a2.55,2.55,0,0,1,2.548,2.547v5.524a2.546,2.546,0,0,1-2.548,2.547"/>
        <path id="Path_6" data-name="Path 6" d="M62.222,84.756H55.108A2.55,2.55,0,0,0,52.56,87.3v81.9l-.005.012a5.214,5.214,0,0,1-5.214,5.2c-.109,0-.211-.026-.319-.031h-.011l0,0a5.2,5.2,0,0,1-4.882-5.181V100.3a2.551,2.551,0,0,0-2.548-2.547l-7.035-.065A2.55,2.55,0,0,0,30,100.231v67.508C30,177.789,35.842,186,45.892,186h2.9c10.05,0,15.975-8.143,15.975-18.194V87.3a2.549,2.549,0,0,0-2.547-2.546"/>
        <path id="Path_7" data-name="Path 7" d="M230.939,109.685h-7.1a2.551,2.551,0,0,0-2.548,2.547v35.53a1.047,1.047,0,0,1-.025.209c0,.027.008.052.008.079a5.209,5.209,0,0,1-10.417,0c0-.047.013-.091.014-.137a1.511,1.511,0,0,1-.014-.151v-47.53a2.55,2.55,0,0,0-2.547-2.547h-7.17a2.551,2.551,0,0,0-2.548,2.547v46.5c0,8.173,4.158,15.084,11.327,17.381V183.45A2.55,2.55,0,0,0,212.471,186h7.142a2.551,2.551,0,0,0,2.547-2.548V164.137c7.21-2.274,11.326-9.2,11.326-17.4v-34.5a2.55,2.55,0,0,0-2.547-2.547"/>
        <path id="Path_8" data-name="Path 8" d="M92.933,94.8a2.55,2.55,0,0,0,2.547,2.546H101a2.55,2.55,0,0,0,2.547-2.546V71.305A2.55,2.55,0,0,0,101,68.757H74.316a2.551,2.551,0,0,0-2.547,2.548V183.729a2.55,2.55,0,0,0,2.547,2.547H101a2.55,2.55,0,0,0,2.547-2.547V159.236A2.55,2.55,0,0,0,101,156.689H95.48a2.55,2.55,0,0,0-2.547,2.547v10.2c0,.121.011.61.011.749a4.41,4.41,0,0,1-8.82,0V84.849a4.41,4.41,0,1,1,8.82,0c0,.139-.011.627-.011.747Z"/>
      </g>
    </g>
  </g>
</svg>
