<svg xmlns="http://www.w3.org/2000/svg" width="323" height="203" viewBox="0 0 323 203">
  <g id="Group_6" data-name="Group 6" transform="translate(-2563 -1397)">
    <g id="Group_5" data-name="Group 5" opacity="0.062">
      <path id="Path_19" data-name="Path 19" d="M99.089,0,95.752,6.76,88.291,7.845l5.4,5.262-1.274,7.431,6.673-3.509,6.673,3.509-1.274-7.431,5.4-5.262L102.425,6.76Z" transform="matrix(0.951, -0.309, 0.309, 0.951, 2507.933, 1472.123)" fill="#248d30"/>
      <path id="Path_27" data-name="Path 27" d="M99.089,0,95.752,6.76,88.291,7.845l5.4,5.262-1.274,7.431,6.673-3.509,6.673,3.509-1.274-7.431,5.4-5.262L102.425,6.76Z" transform="matrix(0.951, -0.309, 0.309, 0.951, 2649.516, 1510.917)" fill="#248d30"/>
      <path id="Path_24" data-name="Path 24" d="M99.089,0,95.752,6.76,88.291,7.845l5.4,5.262-1.274,7.431,6.673-3.509,6.673,3.509-1.274-7.431,5.4-5.262L102.425,6.76Z" transform="matrix(0.951, -0.309, 0.309, 0.951, 2491.933, 1526.054)" fill="#248d30"/>
      <path id="Path_47" data-name="Path 47" d="M99.089,0,95.752,6.76,88.291,7.845l5.4,5.262-1.274,7.431,6.673-3.509,6.673,3.509-1.274-7.431,5.4-5.262L102.425,6.76Z" transform="matrix(0.951, -0.309, 0.309, 0.951, 2526.572, 1558.398)" fill="#248d30"/>
      <path id="Path_30" data-name="Path 30" d="M99.089,0,95.752,6.76,88.291,7.845l5.4,5.262-1.274,7.431,6.673-3.509,6.673,3.509-1.274-7.431,5.4-5.262L102.425,6.76Z" transform="matrix(0.951, -0.309, 0.309, 0.951, 2633.516, 1564.847)" fill="#248d30"/>
      <path id="Path_22" data-name="Path 22" d="M9.093,0,6.283,5.693,0,6.606l4.546,4.431L3.473,17.3l5.619-2.954L14.712,17.3l-1.073-6.258,4.546-4.431L11.9,5.693Z" transform="matrix(0.951, -0.309, 0.309, 0.951, 2668.47, 1466.259)" fill="#248d30"/>
      <path id="Path_39" data-name="Path 39" d="M9.093,0,6.283,5.693,0,6.606l4.546,4.431L3.473,17.3l5.619-2.954L14.712,17.3l-1.073-6.258,4.546-4.431L11.9,5.693Z" transform="matrix(0.951, -0.309, 0.309, 0.951, 2698.178, 1406.77)" fill="#248d30"/>
      <path id="Path_40" data-name="Path 40" d="M9.093,0,6.283,5.693,0,6.606l4.546,4.431L3.473,17.3l5.619-2.954L14.712,17.3l-1.073-6.258,4.546-4.431L11.9,5.693Z" transform="matrix(0.951, -0.309, 0.309, 0.951, 2767.413, 1576.578)" fill="#248d30"/>
      <path id="Path_31" data-name="Path 31" d="M9.093,0,6.283,5.693,0,6.606l4.546,4.431L3.473,17.3l5.619-2.954L14.712,17.3l-1.073-6.258,4.546-4.431L11.9,5.693Z" transform="matrix(0.951, -0.309, 0.309, 0.951, 2810.053, 1505.052)" fill="#248d30"/>
      <path id="Path_25" data-name="Path 25" d="M9.093,0,6.283,5.693,0,6.606l4.546,4.431L3.473,17.3l5.619-2.954L14.712,17.3l-1.073-6.258,4.546-4.431L11.9,5.693Z" transform="matrix(0.951, -0.309, 0.309, 0.951, 2648.47, 1515.717)" fill="#248d30"/>
      <path id="Path_36" data-name="Path 36" d="M9.093,0,6.283,5.693,0,6.606l4.546,4.431L3.473,17.3l5.619-2.954L14.712,17.3l-1.073-6.258,4.546-4.431L11.9,5.693Z" transform="matrix(0.951, -0.309, 0.309, 0.951, 2802.478, 1445.855)" fill="#248d30"/>
      <path id="Path_32" data-name="Path 32" d="M9.093,0,6.283,5.693,0,6.606l4.546,4.431L3.473,17.3l5.619-2.954L14.712,17.3l-1.073-6.258,4.546-4.431L11.9,5.693Z" transform="matrix(0.951, -0.309, 0.309, 0.951, 2790.053, 1554.51)" fill="#248d30"/>
      <path id="Path_49" data-name="Path 49" d="M11.506,0,7.951,7.2,0,8.36l5.753,5.608L4.4,21.887l7.111-3.739,7.111,3.739L17.26,13.968,23.013,8.36,15.062,7.2Z" transform="matrix(0.951, -0.309, 0.309, 0.951, 2824.658, 1572.897)" fill="#248d30"/>
      <path id="Path_50" data-name="Path 50" d="M11.506,0,7.951,7.2,0,8.36l5.753,5.608L4.4,21.887l7.111-3.739,7.111,3.739L17.26,13.968,23.013,8.36,15.062,7.2Z" transform="matrix(0.951, -0.309, 0.309, 0.951, 2853.308, 1421.75)" fill="#248d30"/>
      <path id="Path_37" data-name="Path 37" d="M6.877,0,4.752,4.306,0,5,3.439,8.348l-.812,4.733,4.25-2.235,4.25,2.235-.812-4.733L13.755,5,9,4.306Z" transform="matrix(0.951, -0.309, 0.309, 0.951, 2841.039, 1449.368)" fill="#248d30"/>
      <path id="Path_48" data-name="Path 48" d="M6.877,0,4.752,4.306,0,5,3.439,8.348l-.812,4.733,4.25-2.235,4.25,2.235-.812-4.733L13.755,5,9,4.306Z" transform="matrix(0.951, -0.309, 0.309, 0.951, 2861.278, 1583.726)" fill="#248d30"/>
      <path id="Path_43" data-name="Path 43" d="M6.877,0,4.752,4.306,0,5,3.439,8.348l-.812,4.733,4.25-2.235,4.25,2.235-.812-4.733L13.755,5,9,4.306Z" transform="matrix(0.951, -0.309, 0.309, 0.951, 2684.362, 1558.517)" fill="#248d30"/>
      <path id="Path_44" data-name="Path 44" d="M11.394,0,7.873,7.135,0,8.279l5.7,5.553L4.352,21.673l7.042-3.7,7.042,3.7-1.345-7.842,5.7-5.553L14.915,7.135Z" transform="matrix(0.951, -0.309, 0.309, 0.951, 2644.221, 1567.038)" fill="#248d30"/>
      <path id="Path_45" data-name="Path 45" d="M15.211,0l-4.7,9.525L0,11.052l7.606,7.413L5.81,28.934l9.4-4.943,9.4,4.943-1.8-10.469,7.606-7.413L19.912,9.525Z" transform="matrix(0.951, -0.309, 0.309, 0.951, 2564.977, 1568.302)" fill="#248d30"/>
      <path id="Path_46" data-name="Path 46" d="M13.083,0,9.04,8.192,0,9.506l6.541,6.376L5,24.885l8.085-4.251,8.085,4.251-1.544-9,6.541-6.376-9.04-1.314Z" transform="matrix(0.951, -0.309, 0.309, 0.951, 2567.547, 1414.16)" fill="#248d30"/>
      <path id="Path_38" data-name="Path 38" d="M6.877,0,4.752,4.306,0,5,3.439,8.348l-.812,4.733,4.25-2.235,4.25,2.235-.812-4.733L13.755,5,9,4.306Z" transform="matrix(0.951, -0.309, 0.309, 0.951, 2832.693, 1416.435)" fill="#248d30"/>
      <path id="Path_20" data-name="Path 20" d="M106.732,0l-5.7,11.547L88.291,13.4l9.22,8.987L95.335,35.076l11.4-5.992,11.4,5.992-2.176-12.691,9.22-8.987L112.43,11.546Z" transform="matrix(0.951, -0.309, 0.309, 0.951, 2547.933, 1449.123)" fill="#248d30"/>
      <path id="Path_28" data-name="Path 28" d="M101.551,0l-4.1,8.3L88.291,9.634l6.63,6.462-1.565,9.126,8.2-4.309,8.2,4.309L108.181,16.1l6.63-6.462L105.649,8.3Z" transform="matrix(0.951, -0.309, 0.309, 0.951, 2692.561, 1497.288)" fill="#248d30"/>
      <path id="Path_35" data-name="Path 35" d="M110.452,0,103.6,13.876,88.291,16.1,99.372,26.9,96.756,42.153l13.7-7.2,13.7,7.2L121.533,26.9l11.081-10.8L117.3,13.876Z" transform="matrix(0.951, -0.309, 0.309, 0.951, 2663.329, 1449.002)" fill="#248d30"/>
      <path id="Path_23" data-name="Path 23" d="M100.318,0,96.6,7.53,88.291,8.738,94.3,14.6l-1.419,8.277,7.433-3.908,7.433,3.908L106.332,14.6l6.014-5.862L104.035,7.53Z" transform="matrix(0.951, -0.309, 0.309, 0.951, 2532.959, 1495.356)" fill="#248d30"/>
      <path id="Path_29" data-name="Path 29" d="M100.318,0,96.6,7.53,88.291,8.738,94.3,14.6l-1.419,8.277,7.433-3.908,7.433,3.908L106.332,14.6l6.014-5.862L104.035,7.53Z" transform="matrix(0.951, -0.309, 0.309, 0.951, 2674.542, 1534.15)" fill="#248d30"/>
      <path id="Path_41" data-name="Path 41" d="M103.256,0,98.632,9.37l-10.341,1.5,7.482,7.293-1.766,10.3,9.249-4.862,9.249,4.862-1.766-10.3,7.482-7.293L107.88,9.37Z" transform="matrix(0.951, -0.309, 0.309, 0.951, 2664.813, 1567.422)" fill="#248d30"/>
      <path id="Path_42" data-name="Path 42" d="M103.256,0,98.632,9.37l-10.341,1.5,7.482,7.293-1.766,10.3,9.249-4.862,9.249,4.862-1.766-10.3,7.482-7.293L107.88,9.37Z" transform="matrix(0.951, -0.309, 0.309, 0.951, 2634.218, 1600.079)" fill="#248d30"/>
      <path id="Path_21" data-name="Path 21" d="M15.529,0l-4.8,9.723L0,11.283l7.764,7.568L5.932,29.537l9.6-5.046,9.6,5.046L23.293,18.851l7.764-7.568L20.327,9.723Z" transform="matrix(0.951, -0.309, 0.309, 0.951, 2698.153, 1442.418)" fill="#248d30"/>
      <path id="Path_34" data-name="Path 34" d="M15.529,0l-4.8,9.723L0,11.283l7.764,7.568L5.932,29.537l9.6-5.046,9.6,5.046L23.293,18.851l7.764-7.568L20.327,9.723Z" transform="matrix(0.951, -0.309, 0.309, 0.951, 2839.737, 1481.211)" fill="#248d30"/>
      <path id="Path_26" data-name="Path 26" d="M15.529,0l-4.8,9.723L0,11.283l7.764,7.568L5.932,29.537l9.6-5.046,9.6,5.046L23.293,18.851l7.764-7.568L20.327,9.723Z" transform="matrix(0.951, -0.309, 0.309, 0.951, 2682.153, 1496.349)" fill="#248d30"/>
      <path id="Path_33" data-name="Path 33" d="M15.529,0l-4.8,9.723L0,11.283l7.764,7.568L5.932,29.537l9.6-5.046,9.6,5.046L23.293,18.851l7.764-7.568L20.327,9.723Z" transform="matrix(0.951, -0.309, 0.309, 0.951, 2823.737, 1535.142)" fill="#248d30"/>
      <g id="Rectangle_29" data-name="Rectangle 29" transform="translate(2563 1397)" fill="none" stroke="#707070" stroke-width="1" opacity="0">
        <rect width="323" height="203" stroke="none"/>
        <rect x="0.5" y="0.5" width="322" height="202" fill="none"/>
      </g>
    </g>
  </g>
</svg>
